<?xml version="1.0" encoding="utf-8"?>
<!-- Generator: Adobe Illustrator 24.2.0, SVG Export Plug-In . SVG Version: 6.00 Build 0)  -->
<svg version="1.1" id="Layer_1" xmlns="http://www.w3.org/2000/svg" xmlns:xlink="http://www.w3.org/1999/xlink" x="0px" y="0px"
	 viewBox="0 0 186.9 77.5" style="enable-background:new 0 0 186.9 77.5;" xml:space="preserve">
<style type="text/css">
	.st0{fill:#818181;}
	.st1{fill:#808080;}
	.st2{fill:#FFFFFF;}
	.st3{fill:#6D6D6D;}
	.st4{fill:#616161;}
	.st5{fill:#585858;}
</style>
<path class="st0" d="M186.6,57.4c-1.4,0.3-2.7,0.6-4.1,0.9c-1.9,0.4-3.2,1.5-3.7,3.3c-0.5,1.9,0,3.7,1.3,5.2c0.5,0.7,1.1,1.3,1.6,2
	c0.4,0.6-0.5,2.1-1.4,2.7c-1.2,0.7-2.2,0.4-3.2-0.4c-0.7-0.6-1.6-1.2-2.4-1.6c-2.9-1.5-6.5,0.5-6.8,3.7c-0.1,1-0.3,2-0.4,3.1
	c-0.2,0.9-0.7,1.3-1.6,1.3c-0.5,0-1,0-1.4,0c-1.1,0.1-1.6-0.4-1.8-1.5c-0.3-1.5-0.5-3.1-1.1-4.5c-1.6-3.6-4.8-3.2-7.3-1.5
	c-0.5,0.3-0.9,0.9-1.5,1.2c-0.7,0.3-1.7,0.9-2.2,0.6c-0.9-0.5-1.9-1.5-2.1-2.4c-0.2-0.7,0.7-1.9,1.4-2.6c2.1-2.1,2.3-5.5,0.3-7.2
	c-0.9-0.8-2.3-1.1-3.5-1.5c-0.5-0.2-1-0.2-1.5-0.3c-2.1-0.4-3.1-2.2-2-4.1c0.3-0.5,1.4-0.7,2.1-0.9c0.8-0.2,1.7-0.3,2.5-0.5
	c3.9-0.8,4.6-4.9,2.8-7.7c-0.6-0.8-1.3-1.5-1.9-2.4c-0.2-0.4-0.2-1.1,0-1.5c0.5-1,1.2-2,2.6-1.9c0.2,0,0.5,0.1,0.7,0.3
	c1.5,0.9,2.9,2,4.4,2.8c1.8,0.9,5-1,5.5-3.1c0.3-1.3,0.6-2.7,0.7-4.1c0.1-1.2,0.9-1.5,1.9-1.6c1.2-0.1,2.5-0.1,2.9,1.3
	c0.5,1.7,0.7,3.5,1.3,5.1c0.6,1.7,3,2.8,4.7,2.2c1.4-0.6,2.8-1.4,4.1-2.3c0.8-0.5,1.6-0.9,2.3-0.3c0.8,0.6,1.6,1.4,2,2.3
	c0.2,0.5-0.7,1.3-1.2,2c-1,1.3-1.9,2.5-1.9,4.3c0,2.9,1.7,4.4,4.5,4.9c1.3,0.2,2.7,0,3.8,1.1c0,1.2,0,2.3,0,3.5c0,0,0,0,0,0
	C186.8,57.2,186.7,57.3,186.6,57.4z M175.1,55.2c0.2-5.9-5-10.2-10.2-10.1c-5.7,0.2-10.5,4.5-10,11c0.5,5.6,4.7,9.9,10.7,9.4
	C170.5,65.3,175.1,62,175.1,55.2z"/>
<path class="st1" d="M160.8,4.3c0.7,2.6,3.1,3.7,5.7,1.9c0.6-0.4,1.3-0.7,1.9-1.2c1-0.9,1.9-0.6,2.6,0.2c0.9,1,0.9,1.8-0.1,2.9
	c-1.1,1.1-1.7,2.4-1.6,4c0.1,2,2,3.8,3.8,3.5c2.4-0.3,3.7,1.3,2.9,3.1c-0.4,1-1.4,1-2.2,1.2c-1.2,0.3-2.5,0.6-3.6,1.2
	c-1,0.6-1.2,3.5-0.5,4.7c0.5,0.7,1,1.4,1.5,2.1c0.5,0.7,0.8,1.3,0,1.9c-0.8,0.7-1.3,2-2.8,0.9c-1.3-1-2.7-2-4.5-2
	c-1.4,0-2.7,1-3,2.4c-0.3,1.2-0.4,2.5-0.8,3.6c-0.4,1.3-1.7,0.9-2.5,0.7c-0.5-0.2-1-0.9-1.2-1.5c-0.4-1.7-0.2-3.5-1.9-4.6
	c-1.3-0.9-3.4-0.8-4.8,0.3c-0.3,0.2-0.6,0.6-0.9,0.8c-0.8,0.7-1.7,1.1-2.6,0.2c-1.2-1.1-1.4-1.8-0.5-2.9c0.9-1.2,1.9-2.3,1.9-4
	c0-2.1-1.8-3.7-4.3-3.8c-2-0.1-2.5-0.4-2.7-1.8c-0.2-1.6,1.1-2.8,2.8-2.4c1.4,0.3,2.5-0.5,3.3-1.4c1-1.1,1.3-2.6,0.6-4
	c-0.4-0.8-1.1-1.5-1.5-2.3c-0.3-0.6-0.7-1.4-0.5-1.8c0.4-0.7,1.2-1.3,1.9-1.8c0.1,0,0.4,0.2,0.5,0.3c0.6,0.5,1.3,0.9,1.9,1.4
	c1.5,1.3,3.2,1.2,4.8,0.4c1.3-0.7,1.5-2,1.7-3.3c0.2-0.9,0.6-1.8,0.9-2.6c0.9,0,1.8,0,2.7,0c0,0,0,0,0,0c0.1,0.2,0.2,0.3,0.3,0.5
	c0,0,0,0,0,0c0.1,0.2,0.2,0.5,0.3,0.7c0,0,0,0,0,0C160.4,2.6,160.6,3.5,160.8,4.3z M159.9,25.9c0.3-0.1,0.6-0.2,1-0.3
	c0.6-0.3,1.1-0.6,1.7-0.8c2-0.9,3-2.7,3.6-4.7c0.9-3.5-0.1-7.6-4.4-9.7c-3.5-1.7-8.2-0.2-10.2,2.9c-2.8,4.5-0.8,10.7,4.2,12.3
	c0.3,0.1,0.7,0.2,1,0.2c0,0,0,0,0,0C157.8,25.9,158.9,25.9,159.9,25.9L159.9,25.9z"/>
<path class="st1" d="M142.3,47c0.9-0.2,1.8-0.2,2,1c0.2,1.1-0.4,1.7-1.8,2.1c-0.7,0.2-1.6,0.4-2.2,0.8c-1.5,1-1.5,3.1,0,4.5
	c1.1,1.1,1,2-0.2,2.7c-0.3,0.2-0.9,0.1-1.2-0.1c-0.8-0.4-1.6-1.1-2.4-1.3c-1.7-0.4-3,0.5-3.4,2.2c-0.2,0.8-0.4,1.6-0.9,2.2
	c-0.2,0.3-1.2,0.5-1.5,0.3c-0.4-0.2-0.8-0.9-0.9-1.4c-0.3-1.3-0.4-2.8-2-3.2c-0.8-0.2-1.8,0.2-2.7,0.5c-0.3,0.1-0.6,0.4-0.9,0.6
	c-1,1-1.7,0.2-2.4-0.5c-0.7-0.8-0.1-1.5,0.4-2.1c1.4-1.4,1.3-4.1-0.4-4.8c-0.7-0.3-1.5-0.5-2.3-0.5c-1.1-0.1-1.4-0.7-1.4-1.7
	c0.1-1,0.9-1.2,1.7-1.2c1.5-0.1,2.7-0.7,3.3-2.1c0.7-1.5-0.5-2.3-1.1-3.3c-0.9-1.3-0.8-2.2,0.6-2.9c0.2-0.1,0.7,0.1,1,0.3
	c1.1,0.6,2,1.4,3.4,1.4c0.9,0,1.4-0.3,1.8-0.9c0.4-0.7,0.6-1.6,0.7-2.5c0.1-1,0.6-1.7,1.5-1.7c0.8,0,1.6,0.4,1.7,1.5
	c0.1,0.8,0.4,1.6,0.8,2.3c0.8,1.4,2.3,1.7,4.4,0.3c0.6-0.4,1.4-0.8,1.9-0.6c1.4,0.5,1.5,1.6,0.4,2.6c-1.4,1.3-1.5,3.4-0.2,4.5
	C140.8,46.5,141.6,46.7,142.3,47z M137.2,48.5c0.1-3.6-2.6-5.9-5.8-6c-2.7-0.1-6,2.1-6,5.9c0,3,2.2,6.2,5.9,6
	C134.6,54.2,137,52.6,137.2,48.5z"/>
<path class="st2" d="M42.6,21c0-4.6,0-9.3,0-13.9c0-0.7,0.1-1,0.9-1c0.7,0,0.8,0.3,0.8,0.9c0,0.9,0,1.9,0,2.9
	c0.6-0.6,1.2-1.3,1.8-1.9c4.5-4.2,12-2.9,14.7,2.7c2.1,4.4,2,8.8,0,13.2c-1.4,3-3.9,4.4-7.1,4.7c-3.5,0.3-6.7-0.4-8.8-3.5
	c-0.1-0.1-0.2-0.2-0.3-0.2c0,0.2-0.1,0.4-0.1,0.7c0,3.2,0,6.3,0,9.5c0,0.7,0,1.1-1,1.1c-1,0-0.9-0.5-0.9-1.1
	C42.6,30.3,42.6,25.7,42.6,21z M60.6,17.3c0.1,0,0.2-0.1,0.3-0.1c-0.6-1.9-1-3.9-1.8-5.7c-1.3-3.1-4-4.3-7.3-4.2
	c-3.2,0.1-5.5,1.7-6.6,4.8c-1.2,3.3-1.2,6.7-0.1,10.1c0.9,2.7,2.9,4.4,5.7,4.7c3.2,0.4,6-0.3,7.8-3.1C60,21.8,60.6,19.7,60.6,17.3z"
	/>
<path class="st2" d="M86.9,17.6c-2.7,0-5.4,0-8,0c-0.3,0-0.7,0.3-0.8,0.5c-0.8,5.8,5.6,10.7,11,8.4c2.2-0.9,3.5-2.8,4.4-5
	c0.2-0.3,0.4-0.8,0.6-0.9c0.9-0.4,1.3,0,1.2,1c-0.5,3.5-3.9,6.6-7.8,6.9c-6.9,0.6-11.1-3.3-11.4-10.6c-0.1-4.1,0.7-7.8,4.2-10.4
	c5.9-4.5,14-1.2,15.2,6.1c0.2,1,0.2,2.1,0.3,3.1c0.1,0.6-0.1,0.8-0.8,0.8C92.4,17.6,89.7,17.6,86.9,17.6z M86.1,15.8
	c2.3,0,4.6,0,6.8,0c0.8,0,1.1-0.2,1-1.1c-0.4-4.2-3.7-7.5-7.6-7.5c-4.2,0-7.7,3.4-8.1,7.6c-0.1,0.8,0.2,1,0.9,0.9
	C81.5,15.8,83.8,15.8,86.1,15.8z"/>
<path class="st2" d="M10.8,17.5c-2.6,0-5.3,0-7.9,0c-0.3,0-0.8,0.4-0.8,0.6c0.1,5.5,3.8,10.2,10.6,8.5c2.7-0.7,4-2.8,4.9-5.1
	c0.1-0.3,0.5-0.7,0.8-0.8c0.8-0.2,1.3-0.1,1,1c-1,4-4.1,6.7-8.4,7c-4.5,0.3-8.2-2-9.7-5.8c-2-5-1.7-9.7,1.7-13.9c2.5-3.2,6-4,9.8-3
	c3.8,1,6,3.7,6.8,7.5c0.9,4.1,0.8,4.2-3.4,4.2C14.4,17.5,12.6,17.5,10.8,17.5z M10,15.8c1.9,0,3.8,0,5.6,0c2.6,0,2.6,0,2-2.5
	c-0.8-3.8-4.3-6.3-8.1-6c-3.8,0.3-7.1,3.8-7.3,7.5c0,0.8,0.2,1.1,1,1.1C5.5,15.8,7.7,15.8,10,15.8z"/>
<path class="st2" d="M106.9,6.2c2.6,0.2,4.6,0.3,6.2,1.6c1.7,1.2,2.5,2.9,2.4,5c0,0.3-0.4,0.7-0.6,0.7c-0.4-0.1-1-0.3-1-0.6
	c-0.3-2.2-1.4-3.9-3.7-4.5c-2.8-0.7-5.6-0.7-7.9,1.3c-2,1.7-1.3,5,1.3,5.8c2.7,0.8,5.5,1.4,8.2,2.2c2,0.5,3.6,1.5,4.3,3.6
	c1.1,3.3-0.3,6.1-3.5,7.3c-3.5,1.3-7,1.4-10.4-0.6c-2-1.2-3.1-2.9-3.4-5.2c0-0.4,0.2-1,0.4-1.1c0.6-0.1,1.2-0.2,1.4,0.7
	c0.9,2.9,2.9,4.7,5.9,5.4c2.5,0.6,4.8,0,6.7-1.6c2.2-1.7,1.7-5.3-0.9-6.3c-2.3-0.9-4.8-1.3-7.1-2c-0.9-0.2-1.8-0.5-2.6-0.9
	c-2.4-1.1-3.3-2.7-3.2-5.2c0.1-2.2,1.3-3.9,3.7-4.6C104.5,6.6,106,6.4,106.9,6.2z"/>
<path class="st2" d="M128.6,28.9c-1.6-0.3-2.9-0.5-4.1-0.9c-3-1-4.8-3.1-5.1-6.3c0-0.3,0.2-0.9,0.3-0.9c0.5,0,1.1-0.4,1.5,0.5
	c0.4,1.2,0.9,2.4,1.7,3.3c2,2.3,4.8,2.4,7.6,2c0.7-0.1,1.5-0.4,2.2-0.6c1.7-0.7,2.6-2.1,2.6-3.8c0-1.7-1-3.1-2.8-3.6
	c-2.2-0.6-4.4-1.1-6.6-1.7c-0.7-0.2-1.5-0.4-2.2-0.7c-2.5-1-3.5-2.6-3.5-5.2c0-2.3,1.2-4,3.6-4.8c3-1,6-1.1,8.9,0.1
	c2.3,0.9,3.7,3.2,3.7,5.5c0,0.2-0.3,0.7-0.4,0.7c-0.4-0.1-1.2-0.2-1.2-0.5c-0.3-2.1-1.2-3.7-3.3-4.4c-2.7-0.9-5.3-0.8-7.7,0.6
	c-1.3,0.8-1.9,2-1.7,3.4c0.2,1.4,1,2.4,2.4,2.8c2.7,0.7,5.4,1.4,8.1,2.2c3.7,1.1,5.3,3.8,4.4,7.4c-0.5,1.7-1.6,2.8-3.1,3.4
	C131.9,28.2,130.1,28.5,128.6,28.9z"/>
<path class="st2" d="M38.6,28.4c-0.6-0.5-1.4-1-1.9-1.6c-2-2.6-3.9-5.3-5.8-8c-0.5-0.7-0.7-0.6-1.2,0c-2,2.7-3.9,5.3-5.9,8
	c-0.3,0.4-0.6,0.9-1.1,1.1C22.1,28,21.4,28,20.7,28c0.2-0.4,0.4-0.9,0.7-1.3c2.3-3.1,4.6-6.2,7-9.3c0.5-0.6,0.5-1.1,0-1.7
	c-2.3-2.9-4.5-5.8-6.7-8.7c-0.2-0.2-0.3-0.5-0.4-0.7c0.3-0.1,0.5-0.2,0.8-0.2c1.1-0.1,1.8,0.6,2.5,1.4c1.7,2.2,3.4,4.5,5,6.7
	c0.5,0.7,0.8,0.9,1.4,0c1.6-2.3,3.3-4.5,5-6.7c0.5-0.7,1.4-1,2.2-1.5c0.2-0.1,0.6,0.1,0.9,0.2c-0.1,0.3-0.2,0.5-0.4,0.8
	c-2.2,2.9-4.3,5.7-6.5,8.6c-0.5,0.7-0.6,1.1,0,1.8c2.4,3.2,4.8,6.4,7.2,9.6c0.2,0.3,0.4,0.6,0.5,0.9c-0.3,0.1-0.7,0.2-1,0.2
	C38.7,28.3,38.6,28.3,38.6,28.4z"/>
<path class="st2" d="M65.9,17.1c0-3.4,0-6.7,0-10.1c0-0.7,0.2-0.9,0.9-0.9c0.6,0,0.9,0.1,0.9,0.8c0,0.9,0,1.7,0.1,2.6
	c0.6-0.5,1.3-1,1.9-1.5c1.7-1.3,3.6-2,5.8-1.9c0.3,0,0.6,0.4,0.9,0.6c-0.2,0.3-0.4,0.9-0.7,0.9c-2,0.4-3.9,0.8-5.4,2.3
	c-1.8,1.7-2.4,3.9-2.4,6.3c0,3.6,0,7.2,0,10.8c0,0.6,0.1,1.1-0.9,1.1c-0.9,0-0.9-0.4-0.9-1.1C65.9,23.8,65.9,20.4,65.9,17.1z"/>
<path class="st3" d="M186.8,57.1c0-1.2,0-2.3,0-3.5C186.8,54.8,186.8,56,186.8,57.1z"/>
<path class="st4" d="M160.8,4.3c-0.2-0.9-0.4-1.8-0.6-2.6C160.4,2.6,160.6,3.5,160.8,4.3z"/>
<path class="st4" d="M159.7,0.5c-0.9,0-1.8,0-2.7,0C157.7-0.2,159.1-0.2,159.7,0.5z"/>
<path class="st4" d="M160.2,1.7C160.1,1.5,160,1.2,160,1C160,1.2,160.1,1.5,160.2,1.7z"/>
<path class="st4" d="M160,1c-0.1-0.2-0.2-0.3-0.3-0.5C159.8,0.7,159.9,0.8,160,1z"/>
<path class="st3" d="M186.6,57.4c0.1-0.1,0.2-0.2,0.3-0.3C186.8,57.2,186.7,57.3,186.6,57.4z"/>
<path class="st5" d="M156.8,25.9c1.1,0,2.1,0,3.2,0C158.9,25.9,157.8,25.9,156.8,25.9z"/>
<path class="st5" d="M159.9,25.9c0.3-0.1,0.6-0.2,1-0.3C160.6,25.7,160.2,25.8,159.9,25.9z"/>
<path class="st5" d="M155.7,25.7c0.3,0.1,0.7,0.2,1,0.2C156.4,25.8,156.1,25.8,155.7,25.7z"/>
</svg>
